# xmcd
#
# Track frame offsets:
#	150
#	16038
#	33179
#	46821
#	64325
#	83219
#	97693
#
# Disc length: 1618 seconds
#
# Revision: 0
# Processed by: cddbd v1.4PL0 Copyright (c) Steve Scherf et al.
# Submitted via: dBpowerAMP V4.0
#
DISCID=43065007
DTITLE=Kelly Rae - Kelly Rae
DYEAR=1900
DGENRE=Country
TTITLE0=That's Me
TTITLE1=The Way He Makes Me Feel
TTITLE2=How Soon Can You Get Here?
TTITLE3=Way to Go, Romeo
TTITLE4=All the Way
TTITLE5=In Way Over My Heart
TTITLE6=Trust Me (This is Love)
EXTD=Kelly Rae
EXTT0=
EXTT1=
EXTT2=
EXTT3=
EXTT4=
EXTT5=
EXTT6=
PLAYORDER=
